<svg width="28" height="28" viewBox="0 0 28 28" fill="none" xmlns="http://www.w3.org/2000/svg">
<path d="M22.5 26.25C22.5 26.9404 21.9404 27.5 21.25 27.5C20.5596 27.5 20 26.9404 20 26.25C20 25.5596 20.5596 25 21.25 25C21.9404 25 22.5 25.5596 22.5 26.25Z" fill="#19212D"/>
<path d="M27.5 21.25C27.5 21.9404 26.9404 22.5 26.25 22.5C25.5596 22.5 25 21.9404 25 21.25C25 20.5596 25.5596 20 26.25 20C26.9404 20 27.5 20.5596 27.5 21.25Z" fill="#19212D"/>
<path d="M2.5 6.25C2.5 6.94036 1.94036 7.5 1.25 7.5C0.559644 7.5 0 6.94036 0 6.25C0 5.55964 0.559644 5 1.25 5C1.94036 5 2.5 5.55964 2.5 6.25Z" fill="#19212D"/>
<path d="M7.5 1.25C7.5 1.94036 6.94036 2.5 6.25 2.5C5.55964 2.5 5 1.94036 5 1.25C5 0.559644 5.55964 0 6.25 0C6.94036 0 7.5 0.559644 7.5 1.25Z" fill="#19212D"/>
<path fill-rule="evenodd" clip-rule="evenodd" d="M13.75 6.85365L12.9347 10.2157C12.6089 11.5596 11.5596 12.6089 10.2157 12.9347L6.85365 13.75L10.2157 14.5653C11.5596 14.8911 12.6089 15.9404 12.9347 17.2843L13.75 20.6464L14.5653 17.2843C14.8911 15.9404 15.9404 14.8911 17.2843 14.5653L20.6464 13.75L17.2843 12.9347C15.9404 12.6089 14.8911 11.5596 14.5653 10.2157L13.75 6.85365ZM15.3816 5.0332C14.9667 3.32226 12.5333 3.32227 12.1185 5.03321L10.9769 9.74097C10.8288 10.3518 10.3518 10.8288 9.74097 10.9769L5.0332 12.1185C3.32226 12.5333 3.32227 14.9667 5.03321 15.3816L9.74097 16.5231C10.3518 16.6712 10.8288 17.1482 10.9769 17.759L12.1185 22.4668C12.5333 24.1777 14.9667 24.1777 15.3816 22.4668L16.5231 17.759C16.6712 17.1482 17.1482 16.6712 17.759 16.5231L22.4668 15.3816C24.1777 14.9667 24.1777 12.5333 22.4668 12.1185L17.759 10.9769C17.1482 10.8288 16.6712 10.3518 16.5231 9.74097L15.3816 5.0332Z" fill="#19212D"/>
<path fill-rule="evenodd" clip-rule="evenodd" d="M10.0058 26.6434C9.78852 27.2255 9.14051 27.5212 8.55841 27.304C4.78787 25.8967 1.75916 22.9752 0.212168 19.2785C-0.0276908 18.7054 0.2425 18.0463 0.815656 17.8065C1.38881 17.5666 2.04789 17.8368 2.28775 18.4099C3.59526 21.5343 6.15817 24.0065 9.34519 25.196C9.92728 25.4133 10.223 26.0613 10.0058 26.6434Z" fill="#19212D"/>
<path fill-rule="evenodd" clip-rule="evenodd" d="M26.6442 10.026C26.0622 10.2437 25.414 9.94841 25.1963 9.36649C23.9974 6.16192 21.4963 3.5884 18.3367 2.29063C17.7619 2.05458 17.4874 1.3973 17.7234 0.82257C17.9595 0.247839 18.6168 -0.0267102 19.1915 0.209347C22.9283 1.74417 25.8846 4.78497 27.3036 8.57808C27.5213 9.16001 27.2261 9.80825 26.6442 10.026Z" fill="#19212D"/>
</svg>
