<svg width="22" height="21" viewBox="0 0 22 21" fill="none" xmlns="http://www.w3.org/2000/svg">
<path d="M4.58594 14.6665H3.66927C3.18304 14.6665 2.71673 14.4733 2.37291 14.1295C2.02909 13.7857 1.83594 13.3194 1.83594 12.8332V3.66649C1.83594 3.18026 2.02909 2.71395 2.37291 2.37013C2.71673 2.02631 3.18304 1.83316 3.66927 1.83316H18.3359C18.8222 1.83316 19.2885 2.02631 19.6323 2.37013C19.9761 2.71395 20.1693 3.18026 20.1693 3.66649V12.8332C20.1693 13.3194 19.9761 13.7857 19.6323 14.1295C19.2885 14.4733 18.8222 14.6665 18.3359 14.6665H17.4193" stroke="#1D2633" stroke-width="1.83333" stroke-linecap="round" stroke-linejoin="round"/>
<path d="M11.0013 12.8332L15.5846 18.3332H6.41797L11.0013 12.8332Z" stroke="#1D2633" stroke-width="1.83333" stroke-linecap="round" stroke-linejoin="round"/>
</svg>
