<svg width="39" height="39" viewBox="0 0 39 39" fill="none" xmlns="http://www.w3.org/2000/svg">
<path d="M36 19.0069H35.72C34.57 13.8669 29.98 10.0069 24.5 10.0069H21V8.72688C22.74 8.10688 24 6.45688 24 4.50688C24 2.02688 21.98 0.00687981 19.5 0.00687981C17.02 0.00687981 15 2.02688 15 4.50688C15 6.45688 16.26 8.10688 18 8.72688V10.0069H14.5C9.02 10.0069 4.43 13.8669 3.28 19.0069H3C1.35 19.0069 0 20.3569 0 22.0069V25.0069C0 26.6569 1.35 28.0069 3 28.0069H3.55C4.73 31.6869 7.71 34.5469 11.45 35.5869C11.17 36.1769 11 36.8169 11 37.5069C11 38.3369 11.67 39.0069 12.5 39.0069H26.5C27.33 39.0069 28 38.3369 28 37.5069C28 36.8169 27.83 36.1669 27.55 35.5869C31.29 34.5569 34.27 31.6869 35.45 28.0069H36C37.65 28.0069 39 26.6569 39 25.0069V22.0069C39 20.3569 37.65 19.0069 36 19.0069ZM19.5 3.00688C20.33 3.00688 21 3.67688 21 4.50688C21 5.33688 20.33 6.00688 19.5 6.00688C18.67 6.00688 18 5.33688 18 4.50688C18 3.67688 18.67 3.00688 19.5 3.00688ZM24.5 33.0069H14.5C9.81 33.0069 6 29.1969 6 24.5069V21.5069C6 16.8169 9.81 13.0069 14.5 13.0069H24.5C29.19 13.0069 33 16.8169 33 21.5069V24.5069C33 29.1969 29.19 33.0069 24.5 33.0069Z" fill="black"/>
<path d="M14 17.0069C12.35 17.0069 11 18.3569 11 20.0069V23.0069C11 24.6569 12.35 26.0069 14 26.0069C15.65 26.0069 17 24.6569 17 23.0069V20.0069C17 18.3569 15.65 17.0069 14 17.0069Z" fill="black"/>
<path d="M25 17.0069C23.35 17.0069 22 18.3569 22 20.0069V23.0069C22 24.6569 23.35 26.0069 25 26.0069C26.65 26.0069 28 24.6569 28 23.0069V20.0069C28 18.3569 26.65 17.0069 25 17.0069Z" fill="black"/>
<path d="M9.03 2.92688L12.03 3.92688C12.19 3.97688 12.35 4.00688 12.5 4.00688C13.13 4.00688 13.71 3.60688 13.92 2.97688C14.18 2.18688 13.76 1.33688 12.97 1.07688L9.97 0.0768802C9.19 -0.18312 8.34 0.23688 8.07 1.02688C7.8 1.81688 8.23 2.66688 9.02 2.92688H9.03Z" fill="black"/>
<path d="M9.5 9.00688C9.66 9.00688 9.82 8.98688 9.97 8.92688L12.97 7.92688C13.76 7.66688 14.18 6.81688 13.92 6.02688C13.66 5.23688 12.81 4.81688 12.02 5.07688L9.02 6.07688C8.23 6.33688 7.81 7.18688 8.07 7.97688C8.28 8.60688 8.86 9.00688 9.49 9.00688H9.5Z" fill="black"/>
<path d="M26.5 4.00688C26.66 4.00688 26.82 3.98688 26.97 3.92688L29.97 2.92688C30.76 2.66688 31.18 1.81688 30.92 1.02688C30.66 0.23688 29.81 -0.18312 29.02 0.0768802L26.02 1.07688C25.23 1.33688 24.81 2.18688 25.07 2.97688C25.28 3.60688 25.86 4.00688 26.49 4.00688H26.5Z" fill="black"/>
<path d="M26.03 7.92688L29.03 8.92688C29.19 8.97688 29.35 9.00688 29.5 9.00688C30.13 9.00688 30.71 8.60688 30.92 7.97688C31.18 7.18688 30.76 6.33688 29.97 6.07688L26.97 5.07688C26.19 4.81688 25.33 5.23688 25.07 6.02688C24.81 6.81688 25.23 7.66688 26.02 7.92688H26.03Z" fill="black"/>
</svg>
