<svg width="22" height="22" viewBox="0 0 22 22" fill="none" xmlns="http://www.w3.org/2000/svg">
<g clip-path="url(#clip0_604_2130)">
<path d="M10.5441 18.1124C11.2072 18.1124 11.7498 17.5749 11.7498 16.918V12.7378H15.9699C16.633 12.7378 17.1756 12.2003 17.1756 11.5434C17.1756 10.8865 16.633 10.3491 15.9699 10.3491H11.7498V6.16884C11.7498 5.51194 11.2072 4.97448 10.5441 4.97448C9.88093 4.97448 9.33836 5.51194 9.33836 6.16884V10.3491H5.11831C4.45516 10.3491 3.91258 10.8865 3.91258 11.5434C3.91258 12.2003 4.45516 12.7378 5.11831 12.7378H9.33836V16.918C9.33836 17.5749 9.88093 18.1124 10.5441 18.1124Z" fill="black"/>
<path d="M21.7151 8.68892L21.6187 8.64115C21.2268 8.44408 20.9133 8.12758 20.7084 7.73941L20.6601 7.64386C20.4672 7.26764 19.9186 7.26764 19.7257 7.64386L19.6775 7.73941C19.4785 8.12758 19.159 8.43811 18.7671 8.64115L18.6707 8.68892C18.2909 8.88002 18.2909 9.42345 18.6707 9.61455L18.7671 9.66232C19.159 9.85939 19.4725 10.1759 19.6775 10.5641L19.7257 10.6596C19.9186 11.0358 20.4672 11.0358 20.6601 10.6596L20.7084 10.5641C20.9073 10.1759 21.2268 9.86536 21.6187 9.66232L21.7151 9.61455C22.0949 9.42345 22.0949 8.88002 21.7151 8.68892Z" fill="black"/>
<path d="M13.1063 6.13898L13.2992 6.23453C13.902 6.53909 14.3843 7.01683 14.6918 7.61401L14.7882 7.8051C15.1198 8.45005 15.783 8.85016 16.5185 8.85016C17.254 8.85016 17.9111 8.45005 18.2487 7.8051L18.3451 7.61401C18.6526 7.01683 19.1349 6.53909 19.7378 6.23453L19.9307 6.13898C20.5818 5.81053 20.9857 5.15364 20.9857 4.42508C20.9857 3.69653 20.5818 3.0456 19.9307 2.71118L19.7378 2.61564C19.1349 2.31107 18.6526 1.83333 18.3451 1.23616L18.2487 1.04506C17.9171 0.400109 17.254 0 16.5245 0C15.795 0 15.1319 0.400109 14.7943 1.04506L14.6978 1.23616C14.3904 1.83333 13.9081 2.31107 13.3052 2.61564L13.1123 2.71118C12.4612 3.03963 12.0573 3.69653 12.0573 4.41911C12.0573 5.14169 12.4612 5.79859 13.1123 6.13301L13.1063 6.13898ZM13.9261 4.31162L14.1191 4.21607C15.0656 3.73833 15.8191 2.99186 16.3014 2.05429L16.3979 1.86319C16.3979 1.86319 16.4341 1.79153 16.5124 1.79153C16.5908 1.79153 16.6209 1.83931 16.627 1.86319L16.7234 2.05429C17.2057 2.99186 17.9593 3.73833 18.9058 4.21607L19.0987 4.31162C19.0987 4.31162 19.1711 4.34745 19.1711 4.42508C19.1711 4.50271 19.1168 4.53257 19.0987 4.53855L18.9058 4.63409C17.9593 5.11184 17.2057 5.85831 16.7234 6.79587L16.627 6.98697C16.627 6.98697 16.5908 7.05863 16.5124 7.05863C16.4341 7.05863 16.4039 7.00489 16.3979 6.98697L16.3014 6.79587C15.8191 5.85831 15.0656 5.11184 14.1191 4.63409L13.9261 4.53855C13.9261 4.53855 13.8538 4.50271 13.8538 4.42508C13.8538 4.34745 13.9081 4.31759 13.9261 4.31162Z" fill="black"/>
<path d="M20.2261 11.848C19.7317 11.7883 19.2796 12.1346 19.2193 12.6243C18.6767 16.9419 14.945 20.2025 10.5441 20.2025C5.72118 20.2025 1.80256 16.3208 1.80256 11.5434C1.80256 6.76602 5.72118 2.88436 10.5441 2.88436C10.7249 2.88436 10.9118 2.88436 11.0927 2.90228C11.5991 2.93214 12.0211 2.55592 12.0512 2.06623C12.0814 1.57058 11.7016 1.14658 11.2072 1.11672C10.9902 1.10478 10.7671 1.09881 10.5501 1.09881C4.73248 1.09881 0 5.78664 0 11.5494C0 17.3122 4.73248 22 10.5501 22C15.8613 22 20.3647 18.0706 21.0158 12.8572C21.0761 12.3675 20.7264 11.9197 20.2321 11.8599L20.2261 11.848Z" fill="black"/>
</g>
<defs>
<clipPath id="clip0_604_2130">
<rect width="22" height="22" fill="white"/>
</clipPath>
</defs>
</svg>
