<svg width="20" height="20" viewBox="0 0 20 20" fill="none" xmlns="http://www.w3.org/2000/svg">
<path d="M5.39928 8.85129L0.949138 13.2598C0.819199 13.3887 0.716064 13.542 0.645681 13.711C0.575299 13.8799 0.539062 14.0611 0.539062 14.2441C0.539062 14.4271 0.575299 14.6083 0.645681 14.7773C0.716064 14.9462 0.819199 15.0996 0.949138 15.2284L3.88817 18.1675C4.01705 18.2974 4.17038 18.4005 4.33932 18.4709C4.50825 18.5413 4.68945 18.5775 4.87247 18.5775C5.05548 18.5775 5.23668 18.5413 5.40562 18.4709C5.57456 18.4005 5.72789 18.2974 5.85677 18.1675L10.2653 13.7173" stroke="#1F2937" stroke-width="1.07826" stroke-linecap="round" stroke-linejoin="round"/>
<path d="M13.7174 10.2654L18.1259 5.85683C18.2558 5.72795 18.359 5.57462 18.4294 5.40568C18.4997 5.23674 18.536 5.05554 18.536 4.87253C18.536 4.68952 18.4997 4.50831 18.4294 4.33938C18.359 4.17044 18.2558 4.01711 18.1259 3.88823L15.2285 0.949199C15.0996 0.81926 14.9463 0.716125 14.7773 0.645742C14.6084 0.57536 14.4272 0.539124 14.2442 0.539124C14.0612 0.539124 13.8799 0.57536 13.711 0.645742C13.5421 0.716125 13.3887 0.81926 13.2599 0.949199L8.85132 5.39934" stroke="#1F2937" stroke-width="1.07826" stroke-linecap="round" stroke-linejoin="round"/>
<path d="M12.331 6.78574L6.78564 12.3311" stroke="#1F2937" stroke-width="1.07826" stroke-linecap="round" stroke-linejoin="round"/>
</svg>
