<svg width="17" height="17" viewBox="0 0 17 17" fill="none" xmlns="http://www.w3.org/2000/svg">
<g clip-path="url(#clip0_604_2187)">
<path d="M6.30723 14.3349H1.72004C1.41589 14.3349 1.1242 14.2141 0.909132 13.9991C0.694065 13.784 0.573242 13.4923 0.573242 13.1881V1.72016C0.573242 1.41601 0.694065 1.12432 0.909132 0.909254C1.1242 0.694187 1.41589 0.573364 1.72004 0.573364H14.3348C14.639 0.573364 14.9307 0.694187 15.1457 0.909254C15.3608 1.12432 15.4816 1.41601 15.4816 1.72016V7.45415" stroke="white" stroke-width="1.00345" stroke-linecap="round" stroke-linejoin="round"/>
<path d="M0.573242 4.01379H15.4816" stroke="white" stroke-width="1.00345" stroke-linecap="round" stroke-linejoin="round"/>
<path d="M10.8943 13.7616C12.4777 13.7616 13.7613 12.478 13.7613 10.8946C13.7613 9.31119 12.4777 8.02759 10.8943 8.02759C9.31094 8.02759 8.02734 9.31119 8.02734 10.8946C8.02734 12.478 9.31094 13.7616 10.8943 13.7616Z" stroke="white" stroke-width="1.00345" stroke-linecap="round" stroke-linejoin="round"/>
<path d="M12.9243 12.9244L15.4817 15.4818" stroke="white" stroke-width="1.00345" stroke-linecap="round" stroke-linejoin="round"/>
</g>
<defs>
<clipPath id="clip0_604_2187">
<rect width="16.0552" height="16.0552" fill="white"/>
</clipPath>
</defs>
</svg>
