<svg width="18" height="19" viewBox="0 0 18 19" fill="none" xmlns="http://www.w3.org/2000/svg">
<path d="M17.0319 8.8852L9.37353 16.5435C8.43533 17.4817 7.16285 18.0088 5.83603 18.0088C4.50921 18.0088 3.23674 17.4817 2.29853 16.5435C1.36033 15.6053 0.833252 14.3329 0.833252 13.006C0.833252 11.6792 1.36033 10.4067 2.29853 9.46853L9.95687 1.8102C10.5823 1.18473 11.4307 0.833343 12.3152 0.833344C13.1997 0.833344 14.0481 1.18473 14.6735 1.8102C15.299 2.43567 15.6504 3.28398 15.6504 4.16853C15.6504 5.05308 15.299 5.9014 14.6735 6.52686L7.00687 14.1852C6.69413 14.4979 6.26997 14.6736 5.8277 14.6736C5.38543 14.6736 4.96127 14.4979 4.64853 14.1852C4.3358 13.8725 4.16011 13.4483 4.16011 13.006C4.16011 12.5638 4.3358 12.1396 4.64853 11.8269L11.7235 4.7602" stroke="#1D2633" stroke-width="1.66667" stroke-linecap="round" stroke-linejoin="round"/>
</svg>
