<svg width="17" height="21" viewBox="0 0 17 21" fill="none" xmlns="http://www.w3.org/2000/svg">
<path d="M0.75 0C0.551087 0 0.360322 0.0790176 0.219669 0.21967C0.0790176 0.360322 0 0.551088 0 0.75V20.25C-5.91278e-05 20.3752 0.0312195 20.4984 0.0909843 20.6084C0.150747 20.7184 0.237095 20.8117 0.342154 20.8798C0.447213 20.9478 0.567641 20.9885 0.692459 20.9981C0.817277 21.0077 0.942513 20.986 1.05675 20.9347L8.0625 17.7975L15.0683 20.9347C15.1782 20.984 15.2984 21.006 15.4186 20.999C15.5389 20.9919 15.6557 20.956 15.7591 20.8943C15.8626 20.8326 15.9496 20.7468 16.0129 20.6444C16.0762 20.5419 16.1139 20.4256 16.1228 20.3055L16.125 20.25V0.75C16.125 0.551088 16.046 0.360322 15.9053 0.21967C15.7647 0.0790176 15.5739 0 15.375 0H0.75ZM1.5 1.5H14.625V19.092L8.36925 16.2915C8.1965 16.2142 8.00093 16.2051 7.82175 16.266L7.75575 16.2915L1.5 19.092V1.5ZM8.727 5.65275C8.66351 5.53143 8.56802 5.42981 8.45088 5.35891C8.33374 5.288 8.19943 5.25051 8.0625 5.25051C7.92557 5.25051 7.79126 5.288 7.67412 5.35891C7.55698 5.42981 7.46149 5.53143 7.398 5.65275L6.4875 7.395L4.5495 7.722C4.41904 7.74386 4.29669 7.79983 4.19485 7.88423C4.093 7.96864 4.01529 8.07848 3.9696 8.20261C3.92391 8.32674 3.91186 8.46075 3.93467 8.59104C3.95748 8.72134 4.01435 8.84328 4.0995 8.9445L4.1385 8.9865L5.51475 10.3905L5.22675 12.3345C5.20734 12.4654 5.22289 12.599 5.27182 12.7219C5.32075 12.8448 5.40131 12.9526 5.50534 13.0343C5.60938 13.1161 5.73317 13.1688 5.86417 13.1872C5.99517 13.2057 6.12871 13.1891 6.25125 13.1392L6.30225 13.1168L8.0625 12.2415L9.82275 13.116C9.94118 13.1749 10.0731 13.2015 10.2051 13.193C10.3371 13.1845 10.4646 13.1413 10.5745 13.0676C10.6843 12.994 10.7728 12.8926 10.8309 12.7737C10.8889 12.6548 10.9145 12.5227 10.905 12.3907L10.8983 12.3345L10.6103 10.3897L11.9865 8.98725C12.0791 8.89286 12.1451 8.77567 12.1779 8.64754C12.2106 8.51941 12.2089 8.38491 12.1728 8.25767C12.1368 8.13043 12.0678 8.01497 11.9728 7.92301C11.8778 7.83104 11.7601 7.76584 11.6318 7.734L11.5755 7.722L9.6375 7.395L8.727 5.65275ZM8.0625 7.62L8.48025 8.42025C8.53387 8.52288 8.61053 8.6117 8.70421 8.67975C8.7979 8.74781 8.90607 8.79324 9.02025 8.8125L9.90975 8.9625L9.27825 9.60675C9.2047 9.68178 9.14773 9.77142 9.11103 9.86987C9.07434 9.96832 9.05874 10.0734 9.06525 10.1783L9.072 10.2413L9.20475 11.1337L8.39625 10.7325C8.3031 10.6861 8.20131 10.6596 8.09737 10.6547C7.99343 10.6498 7.88961 10.6666 7.7925 10.704L7.72875 10.7325L6.921 11.1337L7.053 10.2413C7.06838 10.1374 7.06177 10.0314 7.0336 9.93026C7.00544 9.8291 6.95635 9.73498 6.8895 9.654L6.84675 9.60675L6.21525 8.96175L7.10475 8.81175C7.20837 8.79437 7.30718 8.75541 7.39478 8.6974C7.48237 8.63939 7.55681 8.56362 7.61325 8.475L7.64475 8.42025L8.0625 7.62Z" fill="black"/>
</svg>
