<svg width="16" height="16" viewBox="0 0 16 16" fill="none" xmlns="http://www.w3.org/2000/svg">
<path d="M6.21429 14.2143H1.64286C1.33975 14.2143 1.04906 14.0939 0.834735 13.8796C0.620408 13.6652 0.5 13.3745 0.5 13.0714V1.64286C0.5 1.33975 0.620408 1.04906 0.834735 0.834735C1.04906 0.620408 1.33975 0.5 1.64286 0.5H14.2143C14.5174 0.5 14.8081 0.620408 15.0224 0.834735C15.2367 1.04906 15.3571 1.33975 15.3571 1.64286V7.35714" stroke="#1F2937" stroke-linecap="round" stroke-linejoin="round"/>
<path d="M0.5 3.92857H15.3571" stroke="#1F2937" stroke-linecap="round" stroke-linejoin="round"/>
<path d="M10.7856 13.6429C12.3636 13.6429 13.6428 12.3637 13.6428 10.7857C13.6428 9.20776 12.3636 7.92857 10.7856 7.92857C9.20765 7.92857 7.92847 9.20776 7.92847 10.7857C7.92847 12.3637 9.20765 13.6429 10.7856 13.6429Z" stroke="#1F2937" stroke-linecap="round" stroke-linejoin="round"/>
<path d="M12.8086 12.8086L15.3572 15.3571" stroke="#1F2937" stroke-linecap="round" stroke-linejoin="round"/>
</svg>
