<svg width="21" height="21" viewBox="0 0 21 21" fill="none" xmlns="http://www.w3.org/2000/svg">
<path d="M4.9862 2.59791C5.2334 1.57847 6.68327 1.57847 6.93047 2.59791L7.61065 5.40295C7.6989 5.76692 7.98308 6.0511 8.34705 6.13935L11.1521 6.81953C12.1715 7.06673 12.1715 8.5166 11.1521 8.7638L8.34705 9.44398C7.98308 9.53224 7.6989 9.81641 7.61065 10.1804L6.93047 12.9854C6.68327 14.0049 5.2334 14.0049 4.9862 12.9854L4.30602 10.1804C4.21776 9.81641 3.93358 9.53224 3.56962 9.44398L0.764576 8.7638C-0.254858 8.5166 -0.254859 7.06673 0.764576 6.81953L3.56962 6.13935C3.93358 6.0511 4.21776 5.76692 4.30602 5.40295L4.9862 2.59791Z" fill="#19212D"/>
<path d="M13.1518 12.3872C13.3039 11.7598 14.1961 11.7598 14.3482 12.3872L14.7668 14.1134C14.8211 14.3373 14.996 14.5122 15.22 14.5665L16.9462 14.9851C17.5735 15.1372 17.5735 16.0294 16.9462 16.1816L15.22 16.6001C14.996 16.6545 14.8211 16.8293 14.7668 17.0533L14.3482 18.7795C14.1961 19.4068 13.3039 19.4068 13.1518 18.7795L12.7332 17.0533C12.6789 16.8293 12.504 16.6545 12.28 16.6001L10.5538 16.1816C9.9265 16.0294 9.9265 15.1372 10.5538 14.9851L12.28 14.5665C12.504 14.5122 12.6789 14.3373 12.7332 14.1134L13.1518 12.3872Z" fill="#19212D"/>
<path d="M16.1074 2.48585C16.2072 2.07416 16.7928 2.07416 16.8926 2.48585L17.1673 3.61866C17.2029 3.76565 17.3177 3.88041 17.4647 3.91605L18.5975 4.19074C19.0092 4.29057 19.0092 4.87609 18.5975 4.97592L17.4647 5.25061C17.3177 5.28626 17.2029 5.40102 17.1673 5.54801L16.8926 6.68081C16.7928 7.09251 16.2072 7.09251 16.1074 6.68081L15.8327 5.54801C15.7971 5.40102 15.6823 5.28626 15.5353 5.25061L14.4025 4.97592C13.9908 4.87609 13.9908 4.29057 14.4025 4.19074L15.5353 3.91605C15.6823 3.88041 15.7971 3.76565 15.8327 3.61866L16.1074 2.48585Z" fill="#19212D"/>
<path fill-rule="evenodd" clip-rule="evenodd" d="M16.5 2.68684L16.2758 3.61141C16.1862 3.98097 15.8976 4.26952 15.5281 4.35914L14.6035 4.58333L15.5281 4.80753C15.8976 4.89714 16.1862 5.18569 16.2758 5.55526L16.5 6.47983L16.7242 5.55526C16.8138 5.18569 17.1024 4.89714 17.4719 4.80753L18.3965 4.58333L17.4719 4.35914C17.1024 4.26952 16.8138 3.98097 16.7242 3.61141L16.5 2.68684ZM16.9487 2.18621C16.8346 1.71571 16.1654 1.71571 16.0513 2.18621L15.7374 3.48085C15.6967 3.64883 15.5655 3.77999 15.3975 3.82073L14.1029 4.13466C13.6324 4.24875 13.6324 4.91792 14.1029 5.03201L15.3975 5.34594C15.5655 5.38667 15.6967 5.51783 15.7374 5.68582L16.0513 6.98045C16.1654 7.45096 16.8346 7.45096 16.9487 6.98045L17.2626 5.68582C17.3033 5.51783 17.4345 5.38667 17.6025 5.34594L18.8971 5.03201C19.3676 4.91792 19.3676 4.24875 18.8971 4.13466L17.6025 3.82073C17.4345 3.77999 17.3033 3.64883 17.2626 3.48085L16.9487 2.18621Z" fill="#19212D"/>
<path d="M5.5 20.1667C4.99374 20.1667 4.58333 19.7563 4.58333 19.25C4.58333 18.7437 4.99374 18.3333 5.5 18.3333C6.00626 18.3333 6.41667 18.7437 6.41667 19.25C6.41667 19.7563 6.00626 20.1667 5.5 20.1667Z" fill="#19212D"/>
<path d="M0.916667 16.5C0.410406 16.5 -2.21294e-08 16.0896 0 15.5833C2.21294e-08 15.0771 0.410406 14.6667 0.916667 14.6667C1.42293 14.6667 1.83333 15.0771 1.83333 15.5833C1.83333 16.0896 1.42293 16.5 0.916667 16.5Z" fill="#19212D"/>
<path d="M11 1.83333C10.4937 1.83333 10.0833 1.42293 10.0833 0.916667C10.0833 0.410406 10.4937 -2.21294e-08 11 0C11.5063 2.21294e-08 11.9167 0.410406 11.9167 0.916667C11.9167 1.42293 11.5063 1.83333 11 1.83333Z" fill="#19212D"/>
<path d="M19.25 11.9167C18.7437 11.9167 18.3333 11.5063 18.3333 11C18.3333 10.4937 18.7437 10.0833 19.25 10.0833C19.7563 10.0833 20.1667 10.4937 20.1667 11C20.1667 11.5063 19.7563 11.9167 19.25 11.9167Z" fill="#19212D"/>
</svg>
